<mxfile host="app.diagrams.net" modified="2024-03-05T14:04:24.020Z" agent="Mozilla/5.0 (Windows NT 10.0; Win64; x64) AppleWebKit/537.36 (KHTML, like Gecko) Chrome/122.0.0.0 Safari/537.36" etag="L1p9_i0dJ6xdcBxGJqfd" version="24.0.1" type="github">
  <diagram name="Pagina-1" id="_GvBiRjgo-D7wxtzkY7E">
    <mxGraphModel dx="880" dy="508" grid="1" gridSize="10" guides="1" tooltips="1" connect="1" arrows="1" fold="1" page="1" pageScale="1" pageWidth="827" pageHeight="1169" math="0" shadow="0">
      <root>
        <mxCell id="0" />
        <mxCell id="1" parent="0" />
        <mxCell id="AnJFYHgMdjWThNAky926-1" value="About" style="shape=note;whiteSpace=wrap;html=1;backgroundOutline=1;darkOpacity=0.05;" parent="1" vertex="1">
          <mxGeometry x="500" y="40" width="80" height="100" as="geometry" />
        </mxCell>
        <mxCell id="AnJFYHgMdjWThNAky926-2" value="home" style="shape=note;whiteSpace=wrap;html=1;backgroundOutline=1;darkOpacity=0.05;" parent="1" vertex="1">
          <mxGeometry x="40" y="30" width="80" height="100" as="geometry" />
        </mxCell>
        <mxCell id="AnJFYHgMdjWThNAky926-3" value="servizi" style="shape=note;whiteSpace=wrap;html=1;backgroundOutline=1;darkOpacity=0.05;" parent="1" vertex="1">
          <mxGeometry x="200" y="30" width="80" height="100" as="geometry" />
        </mxCell>
        <mxCell id="AnJFYHgMdjWThNAky926-4" value="contatta" style="shape=note;whiteSpace=wrap;html=1;backgroundOutline=1;darkOpacity=0.05;" parent="1" vertex="1">
          <mxGeometry x="670" y="40" width="80" height="100" as="geometry" />
        </mxCell>
        <mxCell id="AnJFYHgMdjWThNAky926-6" value="sogni" style="shape=note;whiteSpace=wrap;html=1;backgroundOutline=1;darkOpacity=0.05;" parent="1" vertex="1">
          <mxGeometry x="350" y="30" width="80" height="100" as="geometry" />
        </mxCell>
        <mxCell id="AnJFYHgMdjWThNAky926-7" value="scissione (non odierai più il tuo lavoro)" style="shape=note;whiteSpace=wrap;html=1;backgroundOutline=1;darkOpacity=0.05;" parent="1" vertex="1">
          <mxGeometry x="110" y="300" width="80" height="100" as="geometry" />
        </mxCell>
        <mxCell id="AnJFYHgMdjWThNAky926-8" value="terapie (compra le emozioni che ti mancano)" style="shape=note;whiteSpace=wrap;html=1;backgroundOutline=1;darkOpacity=0.05;" parent="1" vertex="1">
          <mxGeometry x="210" y="300" width="80" height="100" as="geometry" />
        </mxCell>
        <mxCell id="AnJFYHgMdjWThNAky926-9" value="ottieni il tuo chip (diventa cliente)" style="shape=note;whiteSpace=wrap;html=1;backgroundOutline=1;darkOpacity=0.05;" parent="1" vertex="1">
          <mxGeometry x="311" y="300" width="80" height="100" as="geometry" />
        </mxCell>
        <mxCell id="AnJFYHgMdjWThNAky926-13" value="" style="endArrow=none;html=1;rounded=0;exitX=0;exitY=0;exitDx=25;exitDy=0;exitPerimeter=0;entryX=0;entryY=1;entryDx=0;entryDy=0;entryPerimeter=0;" parent="1" source="AnJFYHgMdjWThNAky926-7" target="AnJFYHgMdjWThNAky926-3" edge="1">
          <mxGeometry width="50" height="50" relative="1" as="geometry">
            <mxPoint x="130" y="270" as="sourcePoint" />
            <mxPoint x="180" y="220" as="targetPoint" />
          </mxGeometry>
        </mxCell>
        <mxCell id="AnJFYHgMdjWThNAky926-14" value="" style="endArrow=none;html=1;rounded=0;exitX=0;exitY=0;exitDx=25;exitDy=0;exitPerimeter=0;entryX=0.5;entryY=1;entryDx=0;entryDy=0;entryPerimeter=0;" parent="1" source="AnJFYHgMdjWThNAky926-8" target="AnJFYHgMdjWThNAky926-3" edge="1">
          <mxGeometry width="50" height="50" relative="1" as="geometry">
            <mxPoint x="230" y="280" as="sourcePoint" />
            <mxPoint x="440" y="210" as="targetPoint" />
          </mxGeometry>
        </mxCell>
        <mxCell id="AnJFYHgMdjWThNAky926-15" value="" style="endArrow=none;html=1;rounded=0;exitX=0;exitY=0;exitDx=25;exitDy=0;exitPerimeter=0;entryX=1;entryY=1;entryDx=0;entryDy=0;entryPerimeter=0;" parent="1" source="AnJFYHgMdjWThNAky926-9" target="AnJFYHgMdjWThNAky926-3" edge="1">
          <mxGeometry width="50" height="50" relative="1" as="geometry">
            <mxPoint x="390" y="260" as="sourcePoint" />
            <mxPoint x="440" y="210" as="targetPoint" />
          </mxGeometry>
        </mxCell>
        <mxCell id="AnJFYHgMdjWThNAky926-17" value="email&lt;div&gt;numero&lt;/div&gt;&lt;div&gt;socials&lt;/div&gt;&lt;div&gt;ecc&lt;/div&gt;" style="rounded=0;whiteSpace=wrap;html=1;" parent="1" vertex="1">
          <mxGeometry x="650" y="140" width="120" height="60" as="geometry" />
        </mxCell>
        <mxCell id="AnJFYHgMdjWThNAky926-18" value="- storia azienda&lt;div&gt;- elenco specialisti&lt;/div&gt;&lt;div&gt;- domnde frequenti&lt;/div&gt;" style="rounded=0;whiteSpace=wrap;html=1;" parent="1" vertex="1">
          <mxGeometry x="480" y="140" width="120" height="60" as="geometry" />
        </mxCell>
        <mxCell id="AnJFYHgMdjWThNAky926-19" value="- introduzione&lt;div&gt;- link allo store&amp;nbsp;&lt;/div&gt;&lt;div&gt;- review dei clienti(dinamica?)&lt;/div&gt;" style="rounded=0;whiteSpace=wrap;html=1;" parent="1" vertex="1">
          <mxGeometry x="30" y="130" width="120" height="60" as="geometry" />
        </mxCell>
        <mxCell id="AnJFYHgMdjWThNAky926-20" value="elenco come su netflix dei sogni che è possibile aquistare&lt;div&gt;(vengono aggiunti da admin)&lt;/div&gt;" style="rounded=0;whiteSpace=wrap;html=1;" parent="1" vertex="1">
          <mxGeometry x="330" y="130" width="120" height="70" as="geometry" />
        </mxCell>
        <mxCell id="etYztn6itL0I0Ck-ov8i-1" value="non dinamiche" style="rounded=0;whiteSpace=wrap;html=1;" vertex="1" parent="1">
          <mxGeometry x="110" y="400" width="280" height="40" as="geometry" />
        </mxCell>
        <mxCell id="etYztn6itL0I0Ck-ov8i-2" value="login/registrati (eng)" style="shape=note;whiteSpace=wrap;html=1;backgroundOutline=1;darkOpacity=0.05;" vertex="1" parent="1">
          <mxGeometry x="690" y="360" width="80" height="100" as="geometry" />
        </mxCell>
        <mxCell id="etYztn6itL0I0Ck-ov8i-3" value="aggiunta sogni dall&#39;admin" style="shape=note;whiteSpace=wrap;html=1;backgroundOutline=1;darkOpacity=0.05;" vertex="1" parent="1">
          <mxGeometry x="430" y="370" width="80" height="100" as="geometry" />
        </mxCell>
        <mxCell id="etYztn6itL0I0Ck-ov8i-4" value="richeiesta per appuntamento per operazione" style="shape=note;whiteSpace=wrap;html=1;backgroundOutline=1;darkOpacity=0.05;" vertex="1" parent="1">
          <mxGeometry x="460" y="220" width="80" height="100" as="geometry" />
        </mxCell>
        <mxCell id="etYztn6itL0I0Ck-ov8i-5" value="recensioni dei clienti che hanno comprato" style="shape=note;whiteSpace=wrap;html=1;backgroundOutline=1;darkOpacity=0.05;" vertex="1" parent="1">
          <mxGeometry x="550" y="360" width="80" height="100" as="geometry" />
        </mxCell>
        <mxCell id="etYztn6itL0I0Ck-ov8i-6" value="" style="endArrow=none;html=1;rounded=0;entryX=0;entryY=0.5;entryDx=0;entryDy=0;entryPerimeter=0;exitX=0;exitY=0;exitDx=65;exitDy=15;exitPerimeter=0;" edge="1" parent="1" source="AnJFYHgMdjWThNAky926-9" target="etYztn6itL0I0Ck-ov8i-4">
          <mxGeometry width="50" height="50" relative="1" as="geometry">
            <mxPoint x="330" y="290" as="sourcePoint" />
            <mxPoint x="380" y="240" as="targetPoint" />
          </mxGeometry>
        </mxCell>
        <mxCell id="etYztn6itL0I0Ck-ov8i-7" value="" style="endArrow=none;html=1;rounded=0;entryX=0.5;entryY=1;entryDx=0;entryDy=0;exitX=0;exitY=0;exitDx=25;exitDy=0;exitPerimeter=0;" edge="1" parent="1" source="etYztn6itL0I0Ck-ov8i-3" target="AnJFYHgMdjWThNAky926-20">
          <mxGeometry width="50" height="50" relative="1" as="geometry">
            <mxPoint x="330" y="290" as="sourcePoint" />
            <mxPoint x="380" y="240" as="targetPoint" />
          </mxGeometry>
        </mxCell>
        <mxCell id="etYztn6itL0I0Ck-ov8i-8" value="utente/admin" style="shape=umlActor;verticalLabelPosition=bottom;verticalAlign=top;html=1;outlineConnect=0;" vertex="1" parent="1">
          <mxGeometry x="700" y="280" width="30" height="60" as="geometry" />
        </mxCell>
      </root>
    </mxGraphModel>
  </diagram>
</mxfile>
